
开始渲染 14 个剪辑...
输出目录: clips/雪烬梨香

渲染剪辑: 雪烬梨香_第1集0秒_第1集28秒.mp4
  起始: 第1集0秒
  结束: 第1集28秒
  时长: 28.020秒
  跨集: 否
  片段数: 1
    1. 第1集 0.000-28.020秒
  ffmpeg version 8.0 Copyright (c) 2000-2025 the FFmpeg developers  built with Apple clang version 17.0.0 (clang-1700.0.13.3)  configuration: --prefix=/opt/homebrew/Cellar/ffmpeg/8.0_1 --enable-shared --enable-pthreads --enable  libavutil      60.  8.100 / 60.  8.100  libavcodec     62. 11.100 / 62. 11.100  libavformat    62.  3.100 / 62.  3.100  libavdevice    62.  1.100 / 62.  1.100  libavfilter    11.  4.100 / 11.  4.100  libswscale      9.  1.100 /  9.  1.100  libswresample   6.  1.100 /  6.  1.100  Input #0, mov,mp4,m4a,3gp,3g2,mj2, from '新的漫剧素材/雪烬梨香/1.mp4':  Metadata:  major_brand     : isom  minor_version   : 512  compatible_brands: isomiso2avc1mp41  comment         : vid:v02d0fg10004d6h66c7og65nuooadls0  encoder         : Lavf58.76.100  Duration: 00:09:19.47, start: 0.000000, bitrate: 687 kb/s  Stream #0:0[0x1](und): Audio: aac (LC) (mp4a / 0x6134706D), 44100 Hz, stereo, fltp, 128 kb/s (defaul  Metadata:  handler_name    : SoundHandler  vendor_id       : [0][0][0][0]  Stream #0:1[0x2](und): Video: h264 (High) (avc1 / 0x31637661), yuv420p(tv, bt709, progressive), 360x  Metadata:  handler_name    : VideoHandler  vendor_id       : [0][0][0][0]  Stream mapping:  Stream #0:1 -> #0:0 (copy)  Stream #0:0 -> #0:1 (copy)  Output #0, mp4, to 'clips/雪烬梨香/雪烬梨香_第1集0秒_第1集28秒.mp4':  Metadata:  major_brand     : isom  minor_version   : 512  compatible_brands: isomiso2avc1mp41  comment         : vid:v02d0fg10004d6h66c7og65nuooadls0  encoder         : Lavf62.3.100  Stream #0:0(und): Video: h264 (High) (avc1 / 0x31637661), yuv420p(tv, bt709, progressive), 360x636 [  Metadata:  handler_name    : VideoHandler  vendor_id       : [0][0][0][0]  Stream #0:1(und): Audio: aac (LC) (mp4a / 0x6134706D), 44100 Hz, stereo, fltp, 128 kb/s (default)  Metadata:  handler_name    : SoundHandler  vendor_id       : [0][0][0][0]  Press [q] to stop, [?] for help  [mp4 @ 0x758813700] Starting second pass: moving the moov atom to the beginning of the file  [out#0/mp4 @ 0x759408300] video:2170KiB audio:439KiB subtitle:0KiB other streams:0KiB global headers  frame=  843 fps=0.0 q=-1.0 Lsize=    2640KiB time=00:00:28.04 bitrate= 771.1kbits/s speed=2.96e+03x   ✅ 输出: clips/雪烬梨香/雪烬梨香_第1集0秒_第1集28秒.mp4
  ❌ 渲染失败: name 'progress' is not defined

渲染剪辑: 雪烬梨香_第1集0秒_第1集1分16秒.mp4
  起始: 第1集0秒
  结束: 第1集1分16秒
  时长: 76.420秒
  跨集: 否
  片段数: 1
    1. 第1集 0.000-76.420秒
  ffmpeg version 8.0 Copyright (c) 2000-2025 the FFmpeg developers  built with Apple clang version 17.0.0 (clang-1700.0.13.3)  configuration: --prefix=/opt/homebrew/Cellar/ffmpeg/8.0_1 --enable-shared --enable-pthreads --enable  libavutil      60.  8.100 / 60.  8.100  libavcodec     62. 11.100 / 62. 11.100  libavformat    62.  3.100 / 62.  3.100  libavdevice    62.  1.100 / 62.  1.100  libavfilter    11.  4.100 / 11.  4.100  libswscale      9.  1.100 /  9.  1.100  libswresample   6.  1.100 /  6.  1.100  Input #0, mov,mp4,m4a,3gp,3g2,mj2, from '新的漫剧素材/雪烬梨香/1.mp4':  Metadata:  major_brand     : isom  minor_version   : 512  compatible_brands: isomiso2avc1mp41  comment         : vid:v02d0fg10004d6h66c7og65nuooadls0  encoder         : Lavf58.76.100  Duration: 00:09:19.47, start: 0.000000, bitrate: 687 kb/s  Stream #0:0[0x1](und): Audio: aac (LC) (mp4a / 0x6134706D), 44100 Hz, stereo, fltp, 128 kb/s (defaul  Metadata:  handler_name    : SoundHandler  vendor_id       : [0][0][0][0]  Stream #0:1[0x2](und): Video: h264 (High) (avc1 / 0x31637661), yuv420p(tv, bt709, progressive), 360x  Metadata:  handler_name    : VideoHandler  vendor_id       : [0][0][0][0]  Stream mapping:  Stream #0:1 -> #0:0 (copy)  Stream #0:0 -> #0:1 (copy)  Output #0, mp4, to 'clips/雪烬梨香/雪烬梨香_第1集0秒_第1集1分16秒.mp4':  Metadata:  major_brand     : isom  minor_version   : 512  compatible_brands: isomiso2avc1mp41  comment         : vid:v02d0fg10004d6h66c7og65nuooadls0  encoder         : Lavf62.3.100  Stream #0:0(und): Video: h264 (High) (avc1 / 0x31637661), yuv420p(tv, bt709, progressive), 360x636 [  Metadata:  handler_name    : VideoHandler  vendor_id       : [0][0][0][0]  Stream #0:1(und): Audio: aac (LC) (mp4a / 0x6134706D), 44100 Hz, stereo, fltp, 128 kb/s (default)  Metadata:  handler_name    : SoundHandler  vendor_id       : [0][0][0][0]  Press [q] to stop, [?] for help  [mp4 @ 0x94ec3b700] Starting second pass: moving the moov atom to the beginning of the file  [out#0/mp4 @ 0x94ec44300] video:4885KiB audio:1196KiB subtitle:0KiB other streams:0KiB global header  frame= 2295 fps=0.0 q=-1.0 Lsize=    6163KiB time=00:01:16.46 bitrate= 660.2kbits/s speed=2.6e+03x e  ✅ 输出: clips/雪烬梨香/雪烬梨香_第1集0秒_第1集1分16秒.mp4
  ❌ 渲染失败: name 'progress' is not defined

渲染剪辑: 雪烬梨香_第1集0秒_第1集2分34秒.mp4
  起始: 第1集0秒
  结束: 第1集2分34秒
  时长: 154.220秒
  跨集: 否
  片段数: 1
    1. 第1集 0.000-154.220秒
  ffmpeg version 8.0 Copyright (c) 2000-2025 the FFmpeg developers  built with Apple clang version 17.0.0 (clang-1700.0.13.3)  configuration: --prefix=/opt/homebrew/Cellar/ffmpeg/8.0_1 --enable-shared --enable-pthreads --enable  libavutil      60.  8.100 / 60.  8.100  libavcodec     62. 11.100 / 62. 11.100  libavformat    62.  3.100 / 62.  3.100  libavdevice    62.  1.100 / 62.  1.100  libavfilter    11.  4.100 / 11.  4.100  libswscale      9.  1.100 /  9.  1.100  libswresample   6.  1.100 /  6.  1.100  Input #0, mov,mp4,m4a,3gp,3g2,mj2, from '新的漫剧素材/雪烬梨香/1.mp4':  Metadata:  major_brand     : isom  minor_version   : 512  compatible_brands: isomiso2avc1mp41  comment         : vid:v02d0fg10004d6h66c7og65nuooadls0  encoder         : Lavf58.76.100  Duration: 00:09:19.47, start: 0.000000, bitrate: 687 kb/s  Stream #0:0[0x1](und): Audio: aac (LC) (mp4a / 0x6134706D), 44100 Hz, stereo, fltp, 128 kb/s (defaul  Metadata:  handler_name    : SoundHandler  vendor_id       : [0][0][0][0]  Stream #0:1[0x2](und): Video: h264 (High) (avc1 / 0x31637661), yuv420p(tv, bt709, progressive), 360x  Metadata:  handler_name    : VideoHandler  vendor_id       : [0][0][0][0]  Stream mapping:  Stream #0:1 -> #0:0 (copy)  Stream #0:0 -> #0:1 (copy)  Output #0, mp4, to 'clips/雪烬梨香/雪烬梨香_第1集0秒_第1集2分34秒.mp4':  Metadata:  major_brand     : isom  minor_version   : 512  compatible_brands: isomiso2avc1mp41  comment         : vid:v02d0fg10004d6h66c7og65nuooadls0  encoder         : Lavf62.3.100  Stream #0:0(und): Video: h264 (High) (avc1 / 0x31637661), yuv420p(tv, bt709, progressive), 360x636 [  Metadata:  handler_name    : VideoHandler  vendor_id       : [0][0][0][0]  Stream #0:1(und): Audio: aac (LC) (mp4a / 0x6134706D), 44100 Hz, stereo, fltp, 128 kb/s (default)  Metadata:  handler_name    : SoundHandler  vendor_id       : [0][0][0][0]  Press [q] to stop, [?] for help  [mp4 @ 0x7e5027700] Starting second pass: moving the moov atom to the beginning of the file  [out#0/mp4 @ 0x7e5078300] video:9247KiB audio:2411KiB subtitle:0KiB other streams:0KiB global header  frame= 4629 fps=0.0 q=-1.0 Lsize=   11822KiB time=00:02:34.32 bitrate= 627.6kbits/s speed=2.06e+03x   ✅ 输出: clips/雪烬梨香/雪烬梨香_第1集0秒_第1集2分34秒.mp4
  ❌ 渲染失败: name 'progress' is not defined

渲染剪辑: 雪烬梨香_第1集0秒_第1集6分43秒.mp4
  起始: 第1集0秒
  结束: 第1集6分43秒
  时长: 403.620秒
  跨集: 否
  片段数: 1
    1. 第1集 0.000-403.620秒
  ffmpeg version 8.0 Copyright (c) 2000-2025 the FFmpeg developers  built with Apple clang version 17.0.0 (clang-1700.0.13.3)  configuration: --prefix=/opt/homebrew/Cellar/ffmpeg/8.0_1 --enable-shared --enable-pthreads --enable  libavutil      60.  8.100 / 60.  8.100  libavcodec     62. 11.100 / 62. 11.100  libavformat    62.  3.100 / 62.  3.100  libavdevice    62.  1.100 / 62.  1.100  libavfilter    11.  4.100 / 11.  4.100  libswscale      9.  1.100 /  9.  1.100  libswresample   6.  1.100 /  6.  1.100  Input #0, mov,mp4,m4a,3gp,3g2,mj2, from '新的漫剧素材/雪烬梨香/1.mp4':  Metadata:  major_brand     : isom  minor_version   : 512  compatible_brands: isomiso2avc1mp41  comment         : vid:v02d0fg10004d6h66c7og65nuooadls0  encoder         : Lavf58.76.100  Duration: 00:09:19.47, start: 0.000000, bitrate: 687 kb/s  Stream #0:0[0x1](und): Audio: aac (LC) (mp4a / 0x6134706D), 44100 Hz, stereo, fltp, 128 kb/s (defaul  Metadata:  handler_name    : SoundHandler  vendor_id       : [0][0][0][0]  Stream #0:1[0x2](und): Video: h264 (High) (avc1 / 0x31637661), yuv420p(tv, bt709, progressive), 360x  Metadata:  handler_name    : VideoHandler  vendor_id       : [0][0][0][0]  Stream mapping:  Stream #0:1 -> #0:0 (copy)  Stream #0:0 -> #0:1 (copy)  Output #0, mp4, to 'clips/雪烬梨香/雪烬梨香_第1集0秒_第1集6分43秒.mp4':  Metadata:  major_brand     : isom  minor_version   : 512  compatible_brands: isomiso2avc1mp41  comment         : vid:v02d0fg10004d6h66c7og65nuooadls0  encoder         : Lavf62.3.100  Stream #0:0(und): Video: h264 (High) (avc1 / 0x31637661), yuv420p(tv, bt709, progressive), 360x636 [  Metadata:  handler_name    : VideoHandler  vendor_id       : [0][0][0][0]  Stream #0:1(und): Audio: aac (LC) (mp4a / 0x6134706D), 44100 Hz, stereo, fltp, 128 kb/s (default)  Metadata:  handler_name    : SoundHandler  vendor_id       : [0][0][0][0]  Press [q] to stop, [?] for help  [mp4 @ 0xb8d063700] Starting second pass: moving the moov atom to the beginning of the file  [out#0/mp4 @ 0xb8d0089c0] video:24389KiB audio:6308KiB subtitle:0KiB other streams:0KiB global heade  frame=12111 fps=0.0 q=-1.0 Lsize=   31125KiB time=00:06:43.67 bitrate= 631.6kbits/s speed=3.03e+03x   ✅ 输出: clips/雪烬梨香/雪烬梨香_第1集0秒_第1集6分43秒.mp4
  ❌ 渲染失败: name 'progress' is not defined

渲染剪辑: 雪烬梨香_第1集40秒_第1集1分16秒.mp4
  起始: 第1集40秒
  结束: 第1集1分16秒
  时长: 36.360秒
  跨集: 否
  片段数: 1
    1. 第1集 40.060-76.420秒
  ffmpeg version 8.0 Copyright (c) 2000-2025 the FFmpeg developers  built with Apple clang version 17.0.0 (clang-1700.0.13.3)  configuration: --prefix=/opt/homebrew/Cellar/ffmpeg/8.0_1 --enable-shared --enable-pthreads --enable  libavutil      60.  8.100 / 60.  8.100  libavcodec     62. 11.100 / 62. 11.100  libavformat    62.  3.100 / 62.  3.100  libavdevice    62.  1.100 / 62.  1.100  libavfilter    11.  4.100 / 11.  4.100  libswscale      9.  1.100 /  9.  1.100  libswresample   6.  1.100 /  6.  1.100  Input #0, mov,mp4,m4a,3gp,3g2,mj2, from '新的漫剧素材/雪烬梨香/1.mp4':  Metadata:  major_brand     : isom  minor_version   : 512  compatible_brands: isomiso2avc1mp41  comment         : vid:v02d0fg10004d6h66c7og65nuooadls0  encoder         : Lavf58.76.100  Duration: 00:09:19.47, start: 0.000000, bitrate: 687 kb/s  Stream #0:0[0x1](und): Audio: aac (LC) (mp4a / 0x6134706D), 44100 Hz, stereo, fltp, 128 kb/s (defaul  Metadata:  handler_name    : SoundHandler  vendor_id       : [0][0][0][0]  Stream #0:1[0x2](und): Video: h264 (High) (avc1 / 0x31637661), yuv420p(tv, bt709, progressive), 360x  Metadata:  handler_name    : VideoHandler  vendor_id       : [0][0][0][0]  Stream mapping:  Stream #0:1 -> #0:0 (copy)  Stream #0:0 -> #0:1 (copy)  Output #0, mp4, to 'clips/雪烬梨香/雪烬梨香_第1集40秒_第1集1分16秒.mp4':  Metadata:  major_brand     : isom  minor_version   : 512  compatible_brands: isomiso2avc1mp41  comment         : vid:v02d0fg10004d6h66c7og65nuooadls0  encoder         : Lavf62.3.100  Stream #0:0(und): Video: h264 (High) (avc1 / 0x31637661), yuv420p(tv, bt709, progressive), 360x636 [  Metadata:  handler_name    : VideoHandler  vendor_id       : [0][0][0][0]  Stream #0:1(und): Audio: aac (LC) (mp4a / 0x6134706D), 44100 Hz, stereo, fltp, 128 kb/s (default)  Metadata:  handler_name    : SoundHandler  vendor_id       : [0][0][0][0]  Press [q] to stop, [?] for help  [mp4 @ 0xb30837700] Starting second pass: moving the moov atom to the beginning of the file  [out#0/mp4 @ 0xb31434300] video:2103KiB audio:577KiB subtitle:0KiB other streams:0KiB global headers  frame= 1108 fps=0.0 q=-1.0 Lsize=    2721KiB time=00:00:36.40 bitrate= 612.2kbits/s speed=3.66e+03x   ✅ 输出: clips/雪烬梨香/雪烬梨香_第1集40秒_第1集1分16秒.mp4
  ❌ 渲染失败: name 'progress' is not defined

渲染剪辑: 雪烬梨香_第1集40秒_第1集2分34秒.mp4
  起始: 第1集40秒
  结束: 第1集2分34秒
  时长: 114.160秒
  跨集: 否
  片段数: 1
    1. 第1集 40.060-154.220秒
  ffmpeg version 8.0 Copyright (c) 2000-2025 the FFmpeg developers  built with Apple clang version 17.0.0 (clang-1700.0.13.3)  configuration: --prefix=/opt/homebrew/Cellar/ffmpeg/8.0_1 --enable-shared --enable-pthreads --enable  libavutil      60.  8.100 / 60.  8.100  libavcodec     62. 11.100 / 62. 11.100  libavformat    62.  3.100 / 62.  3.100  libavdevice    62.  1.100 / 62.  1.100  libavfilter    11.  4.100 / 11.  4.100  libswscale      9.  1.100 /  9.  1.100  libswresample   6.  1.100 /  6.  1.100  Input #0, mov,mp4,m4a,3gp,3g2,mj2, from '新的漫剧素材/雪烬梨香/1.mp4':  Metadata:  major_brand     : isom  minor_version   : 512  compatible_brands: isomiso2avc1mp41  comment         : vid:v02d0fg10004d6h66c7og65nuooadls0  encoder         : Lavf58.76.100  Duration: 00:09:19.47, start: 0.000000, bitrate: 687 kb/s  Stream #0:0[0x1](und): Audio: aac (LC) (mp4a / 0x6134706D), 44100 Hz, stereo, fltp, 128 kb/s (defaul  Metadata:  handler_name    : SoundHandler  vendor_id       : [0][0][0][0]  Stream #0:1[0x2](und): Video: h264 (High) (avc1 / 0x31637661), yuv420p(tv, bt709, progressive), 360x  Metadata:  handler_name    : VideoHandler  vendor_id       : [0][0][0][0]  Stream mapping:  Stream #0:1 -> #0:0 (copy)  Stream #0:0 -> #0:1 (copy)  Output #0, mp4, to 'clips/雪烬梨香/雪烬梨香_第1集40秒_第1集2分34秒.mp4':  Metadata:  major_brand     : isom  minor_version   : 512  compatible_brands: isomiso2avc1mp41  comment         : vid:v02d0fg10004d6h66c7og65nuooadls0  encoder         : Lavf62.3.100  Stream #0:0(und): Video: h264 (High) (avc1 / 0x31637661), yuv420p(tv, bt709, progressive), 360x636 [  Metadata:  handler_name    : VideoHandler  vendor_id       : [0][0][0][0]  Stream #0:1(und): Audio: aac (LC) (mp4a / 0x6134706D), 44100 Hz, stereo, fltp, 128 kb/s (default)  Metadata:  handler_name    : SoundHandler  vendor_id       : [0][0][0][0]  Press [q] to stop, [?] for help  [mp4 @ 0xc18c13700] Starting second pass: moving the moov atom to the beginning of the file  [out#0/mp4 @ 0xc18c1c300] video:6465KiB audio:1793KiB subtitle:0KiB other streams:0KiB global header  frame= 3442 fps=0.0 q=-1.0 Lsize=    8380KiB time=00:01:54.27 bitrate= 600.8kbits/s speed=3.98e+03x   ✅ 输出: clips/雪烬梨香/雪烬梨香_第1集40秒_第1集2分34秒.mp4
  ❌ 渲染失败: name 'progress' is not defined

渲染剪辑: 雪烬梨香_第1集40秒_第1集6分43秒.mp4
  起始: 第1集40秒
  结束: 第1集6分43秒
  时长: 363.560秒
  跨集: 否
  片段数: 1
    1. 第1集 40.060-403.620秒
  ffmpeg version 8.0 Copyright (c) 2000-2025 the FFmpeg developers  built with Apple clang version 17.0.0 (clang-1700.0.13.3)  configuration: --prefix=/opt/homebrew/Cellar/ffmpeg/8.0_1 --enable-shared --enable-pthreads --enable  libavutil      60.  8.100 / 60.  8.100  libavcodec     62. 11.100 / 62. 11.100  libavformat    62.  3.100 / 62.  3.100  libavdevice    62.  1.100 / 62.  1.100  libavfilter    11.  4.100 / 11.  4.100  libswscale      9.  1.100 /  9.  1.100  libswresample   6.  1.100 /  6.  1.100  Input #0, mov,mp4,m4a,3gp,3g2,mj2, from '新的漫剧素材/雪烬梨香/1.mp4':  Metadata:  major_brand     : isom  minor_version   : 512  compatible_brands: isomiso2avc1mp41  comment         : vid:v02d0fg10004d6h66c7og65nuooadls0  encoder         : Lavf58.76.100  Duration: 00:09:19.47, start: 0.000000, bitrate: 687 kb/s  Stream #0:0[0x1](und): Audio: aac (LC) (mp4a / 0x6134706D), 44100 Hz, stereo, fltp, 128 kb/s (defaul  Metadata:  handler_name    : SoundHandler  vendor_id       : [0][0][0][0]  Stream #0:1[0x2](und): Video: h264 (High) (avc1 / 0x31637661), yuv420p(tv, bt709, progressive), 360x  Metadata:  handler_name    : VideoHandler  vendor_id       : [0][0][0][0]  Stream mapping:  Stream #0:1 -> #0:0 (copy)  Stream #0:0 -> #0:1 (copy)  Output #0, mp4, to 'clips/雪烬梨香/雪烬梨香_第1集40秒_第1集6分43秒.mp4':  Metadata:  major_brand     : isom  minor_version   : 512  compatible_brands: isomiso2avc1mp41  comment         : vid:v02d0fg10004d6h66c7og65nuooadls0  encoder         : Lavf62.3.100  Stream #0:0(und): Video: h264 (High) (avc1 / 0x31637661), yuv420p(tv, bt709, progressive), 360x636 [  Metadata:  handler_name    : VideoHandler  vendor_id       : [0][0][0][0]  Stream #0:1(und): Audio: aac (LC) (mp4a / 0x6134706D), 44100 Hz, stereo, fltp, 128 kb/s (default)  Metadata:  handler_name    : SoundHandler  vendor_id       : [0][0][0][0]  Press [q] to stop, [?] for help  [mp4 @ 0x702837700] Starting second pass: moving the moov atom to the beginning of the file  [out#0/mp4 @ 0x703458300] video:21607KiB audio:5690KiB subtitle:0KiB other streams:0KiB global heade  frame=10924 fps=0.0 q=-1.0 Lsize=   27683KiB time=00:06:03.64 bitrate= 623.6kbits/s speed=3.93e+03x   ✅ 输出: clips/雪烬梨香/雪烬梨香_第1集40秒_第1集6分43秒.mp4
  ❌ 渲染失败: name 'progress' is not defined

渲染剪辑: 雪烬梨香_第1集40秒_第4集3分11秒.mp4
  起始: 第1集40秒
  结束: 第4集3分11秒
  时长: 709.960秒
  跨集: 是
  片段数: 2
    1. 第1集 40.060-559.000秒
    2. 第4集 0.000-191.020秒
  ffmpeg version 8.0 Copyright (c) 2000-2025 the FFmpeg developers  built with Apple clang version 17.0.0 (clang-1700.0.13.3)  configuration: --prefix=/opt/homebrew/Cellar/ffmpeg/8.0_1 --enable-shared --enable-pthreads --enable  libavutil      60.  8.100 / 60.  8.100  libavcodec     62. 11.100 / 62. 11.100  libavformat    62.  3.100 / 62.  3.100  libavdevice    62.  1.100 / 62.  1.100  libavfilter    11.  4.100 / 11.  4.100  libswscale      9.  1.100 /  9.  1.100  libswresample   6.  1.100 /  6.  1.100  Input #0, mov,mp4,m4a,3gp,3g2,mj2, from '新的漫剧素材/雪烬梨香/1.mp4':  Metadata:  major_brand     : isom  minor_version   : 512  compatible_brands: isomiso2avc1mp41  comment         : vid:v02d0fg10004d6h66c7og65nuooadls0  encoder         : Lavf58.76.100  Duration: 00:09:19.47, start: 0.000000, bitrate: 687 kb/s  Stream #0:0[0x1](und): Audio: aac (LC) (mp4a / 0x6134706D), 44100 Hz, stereo, fltp, 128 kb/s (defaul  Metadata:  handler_name    : SoundHandler  vendor_id       : [0][0][0][0]  Stream #0:1[0x2](und): Video: h264 (High) (avc1 / 0x31637661), yuv420p(tv, bt709, progressive), 360x  Metadata:  handler_name    : VideoHandler  vendor_id       : [0][0][0][0]  Stream mapping:  Stream #0:1 -> #0:0 (copy)  Stream #0:0 -> #0:1 (copy)  Output #0, mp4, to 'clips/雪烬梨香/temp/segment_0.mp4':  Metadata:  major_brand     : isom  minor_version   : 512  compatible_brands: isomiso2avc1mp41  comment         : vid:v02d0fg10004d6h66c7og65nuooadls0  encoder         : Lavf62.3.100  Stream #0:0(und): Video: h264 (High) (avc1 / 0x31637661), yuv420p(tv, bt709, progressive), 360x636 [  Metadata:  handler_name    : VideoHandler  vendor_id       : [0][0][0][0]  Stream #0:1(und): Audio: aac (LC) (mp4a / 0x6134706D), 44100 Hz, stereo, fltp, 128 kb/s (default)  Metadata:  handler_name    : SoundHandler  vendor_id       : [0][0][0][0]  Press [q] to stop, [?] for help  [mp4 @ 0xc74c0f700] Starting second pass: moving the moov atom to the beginning of the file  [out#0/mp4 @ 0xc74c38300] video:34815KiB audio:8118KiB subtitle:0KiB other streams:0KiB global heade  frame=15586 fps=0.0 q=-1.0 Lsize=   43483KiB time=00:08:39.03 bitrate= 686.3kbits/s speed=2.62e+03x   ffmpeg version 8.0 Copyright (c) 2000-2025 the FFmpeg developers  built with Apple clang version 17.0.0 (clang-1700.0.13.3)  configuration: --prefix=/opt/homebrew/Cellar/ffmpeg/8.0_1 --enable-shared --enable-pthreads --enable  libavutil      60.  8.100 / 60.  8.100  libavcodec     62. 11.100 / 62. 11.100  libavformat    62.  3.100 / 62.  3.100  libavdevice    62.  1.100 / 62.  1.100  libavfilter    11.  4.100 / 11.  4.100  libswscale      9.  1.100 /  9.  1.100  libswresample   6.  1.100 /  6.  1.100  Input #0, mov,mp4,m4a,3gp,3g2,mj2, from '新的漫剧素材/雪烬梨香/4.mp4':  Metadata:  major_brand     : isom  minor_version   : 512  compatible_brands: isomiso2avc1mp41  comment         : vid:v02d0fg10004d6h669vog65vkqp1pp00  encoder         : Lavf58.76.100  Duration: 00:00:58.50, start: 0.000000, bitrate: 730 kb/s  Stream #0:0[0x1](und): Audio: aac (LC) (mp4a / 0x6134706D), 44100 Hz, stereo, fltp, 128 kb/s (defaul  Metadata:  handler_name    : SoundHandler  vendor_id       : [0][0][0][0]  Stream #0:1[0x2](und): Video: h264 (High) (avc1 / 0x31637661), yuv420p(tv, bt709, progressive), 360x  Metadata:  handler_name    : VideoHandler  vendor_id       : [0][0][0][0]  Stream mapping:  Stream #0:1 -> #0:0 (copy)  Stream #0:0 -> #0:1 (copy)  Output #0, mp4, to 'clips/雪烬梨香/temp/segment_1.mp4':  Metadata:  major_brand     : isom  minor_version   : 512  compatible_brands: isomiso2avc1mp41  comment         : vid:v02d0fg10004d6h669vog65vkqp1pp00  encoder         : Lavf62.3.100  Stream #0:0(und): Video: h264 (High) (avc1 / 0x31637661), yuv420p(tv, bt709, progressive), 360x636 [  Metadata:  handler_name    : VideoHandler  vendor_id       : [0][0][0][0]  Stream #0:1(und): Audio: aac (LC) (mp4a / 0x6134706D), 44100 Hz, stereo, fltp, 128 kb/s (default)  Metadata:  handler_name    : SoundHandler  vendor_id       : [0][0][0][0]  Press [q] to stop, [?] for help  [mp4 @ 0x77f043700] Starting second pass: moving the moov atom to the beginning of the file  [out#0/mp4 @ 0x77f0089c0] video:4240KiB audio:915KiB subtitle:0KiB other streams:0KiB global headers  frame= 1755 fps=0.0 q=-1.0 Lsize=    5218KiB time=00:00:58.43 bitrate= 731.6kbits/s speed=2.33e+03x 进度: [8/14] 50.0%进度: [8/14] 100.0%  ✅ 输出: clips/雪烬梨香/雪烬梨香_第1集40秒_第4集3分11秒.mp4
  ❌ 渲染失败: name 'progress' is not defined

渲染剪辑: 雪烬梨香_第5集3分26秒_第6集3分25秒.mp4
  起始: 第5集3分26秒
  结束: 第6集3分25秒
  时长: 64.440秒
  跨集: 是
  片段数: 2
    1. 第5集 206.100-65.000秒
    2. 第6集 0.000-205.540秒
  ffmpeg version 8.0 Copyright (c) 2000-2025 the FFmpeg developers  built with Apple clang version 17.0.0 (clang-1700.0.13.3)  configuration: --prefix=/opt/homebrew/Cellar/ffmpeg/8.0_1 --enable-shared --enable-pthreads --enable  libavutil      60.  8.100 / 60.  8.100  libavcodec     62. 11.100 / 62. 11.100  libavformat    62.  3.100 / 62.  3.100  libavdevice    62.  1.100 / 62.  1.100  libavfilter    11.  4.100 / 11.  4.100  libswscale      9.  1.100 /  9.  1.100  libswresample   6.  1.100 /  6.  1.100  Input #0, mov,mp4,m4a,3gp,3g2,mj2, from '新的漫剧素材/雪烬梨香/5.mp4':  Metadata:  major_brand     : isom  minor_version   : 512  compatible_brands: isomiso2avc1mp41  encoder         : Lavf58.76.100  Duration: 00:01:05.97, start: 0.000000, bitrate: 731 kb/s  Stream #0:0[0x1](und): Video: h264 (High) (avc1 / 0x31637661), yuv420p(progressive), 360x636, 594 kb  Metadata:  handler_name    : VideoHandler  vendor_id       : [0][0][0][0]  Stream #0:1[0x2](und): Audio: aac (LC) (mp4a / 0x6134706D), 44100 Hz, stereo, fltp, 128 kb/s (defaul  Metadata:  handler_name    : SoundHandler  vendor_id       : [0][0][0][0]  Stream mapping:  Stream #0:0 -> #0:0 (copy)  Stream #0:1 -> #0:1 (copy)  Output #0, mp4, to 'clips/雪烬梨香/temp/segment_0.mp4':  Metadata:  major_brand     : isom  minor_version   : 512  compatible_brands: isomiso2avc1mp41  encoder         : Lavf62.3.100  Stream #0:0(und): Video: h264 (High) (avc1 / 0x31637661), yuv420p(progressive), 360x636, q=2-31, 594  Metadata:  handler_name    : VideoHandler  vendor_id       : [0][0][0][0]  Stream #0:1(und): Audio: aac (LC) (mp4a / 0x6134706D), 44100 Hz, stereo, fltp, 128 kb/s (default)  Metadata:  handler_name    : SoundHandler  vendor_id       : [0][0][0][0]  Press [q] to stop, [?] for help  [mp4 @ 0xb32c5b700] Starting second pass: moving the moov atom to the beginning of the file  [out#0/mp4 @ 0xb32c28e40] video:484KiB audio:72KiB subtitle:0KiB other streams:0KiB global headers:0  frame=  138 fps=0.0 q=-1.0 Lsize=     562KiB time=-00:02:21.06 bitrate=N/A speed=N/A elapsed=0:00:00  ffmpeg version 8.0 Copyright (c) 2000-2025 the FFmpeg developers  built with Apple clang version 17.0.0 (clang-1700.0.13.3)  configuration: --prefix=/opt/homebrew/Cellar/ffmpeg/8.0_1 --enable-shared --enable-pthreads --enable  libavutil      60.  8.100 / 60.  8.100  libavcodec     62. 11.100 / 62. 11.100  libavformat    62.  3.100 / 62.  3.100  libavdevice    62.  1.100 / 62.  1.100  libavfilter    11.  4.100 / 11.  4.100  libswscale      9.  1.100 /  9.  1.100  libswresample   6.  1.100 /  6.  1.100  Input #0, mov,mp4,m4a,3gp,3g2,mj2, from '新的漫剧素材/雪烬梨香/6.mp4':  Metadata:  major_brand     : isom  minor_version   : 512  compatible_brands: isomiso2avc1mp41  comment         : vid:v02d0fg10004d6h66cfog65ukosk78v0  encoder         : Lavf58.76.100  Duration: 00:00:59.73, start: 0.000000, bitrate: 757 kb/s  Stream #0:0[0x1](und): Audio: aac (LC) (mp4a / 0x6134706D), 44100 Hz, stereo, fltp, 128 kb/s (defaul  Metadata:  handler_name    : SoundHandler  vendor_id       : [0][0][0][0]  Stream #0:1[0x2](und): Video: h264 (High) (avc1 / 0x31637661), yuv420p(tv, bt709, progressive), 360x  Metadata:  handler_name    : VideoHandler  vendor_id       : [0][0][0][0]  Stream mapping:  Stream #0:1 -> #0:0 (copy)  Stream #0:0 -> #0:1 (copy)  Output #0, mp4, to 'clips/雪烬梨香/temp/segment_1.mp4':  Metadata:  major_brand     : isom  minor_version   : 512  compatible_brands: isomiso2avc1mp41  comment         : vid:v02d0fg10004d6h66cfog65ukosk78v0  encoder         : Lavf62.3.100  Stream #0:0(und): Video: h264 (High) (avc1 / 0x31637661), yuv420p(tv, bt709, progressive), 360x636 [  Metadata:  handler_name    : VideoHandler  vendor_id       : [0][0][0][0]  Stream #0:1(und): Audio: aac (LC) (mp4a / 0x6134706D), 44100 Hz, stereo, fltp, 128 kb/s (default)  Metadata:  handler_name    : SoundHandler  vendor_id       : [0][0][0][0]  Press [q] to stop, [?] for help  [mp4 @ 0xb2106b700] Starting second pass: moving the moov atom to the beginning of the file  [out#0/mp4 @ 0xb210bc300] video:4521KiB audio:935KiB subtitle:0KiB other streams:0KiB global headers  frame= 1792 fps=0.0 q=-1.0 Lsize=    5520KiB time=00:00:59.66 bitrate= 757.9kbits/s speed=2.7e+03x e进度: [9/14] 50.0%进度: [9/14] 100.0%  ✅ 输出: clips/雪烬梨香/雪烬梨香_第5集3分26秒_第6集3分25秒.mp4
  ❌ 渲染失败: name 'progress' is not defined

渲染剪辑: 雪烬梨香_第5集3分26秒_第7集3分48秒.mp4
  起始: 第5集3分26秒
  结束: 第7集3分48秒
  时长: 146.320秒
  跨集: 是
  片段数: 3
    1. 第5集 206.100-65.000秒
    2. 第6集 0.000-59.000秒
    3. 第7集 0.000-228.420秒
  ffmpeg version 8.0 Copyright (c) 2000-2025 the FFmpeg developers  built with Apple clang version 17.0.0 (clang-1700.0.13.3)  configuration: --prefix=/opt/homebrew/Cellar/ffmpeg/8.0_1 --enable-shared --enable-pthreads --enable  libavutil      60.  8.100 / 60.  8.100  libavcodec     62. 11.100 / 62. 11.100  libavformat    62.  3.100 / 62.  3.100  libavdevice    62.  1.100 / 62.  1.100  libavfilter    11.  4.100 / 11.  4.100  libswscale      9.  1.100 /  9.  1.100  libswresample   6.  1.100 /  6.  1.100  Input #0, mov,mp4,m4a,3gp,3g2,mj2, from '新的漫剧素材/雪烬梨香/5.mp4':  Metadata:  major_brand     : isom  minor_version   : 512  compatible_brands: isomiso2avc1mp41  encoder         : Lavf58.76.100  Duration: 00:01:05.97, start: 0.000000, bitrate: 731 kb/s  Stream #0:0[0x1](und): Video: h264 (High) (avc1 / 0x31637661), yuv420p(progressive), 360x636, 594 kb  Metadata:  handler_name    : VideoHandler  vendor_id       : [0][0][0][0]  Stream #0:1[0x2](und): Audio: aac (LC) (mp4a / 0x6134706D), 44100 Hz, stereo, fltp, 128 kb/s (defaul  Metadata:  handler_name    : SoundHandler  vendor_id       : [0][0][0][0]  Stream mapping:  Stream #0:0 -> #0:0 (copy)  Stream #0:1 -> #0:1 (copy)  Output #0, mp4, to 'clips/雪烬梨香/temp/segment_0.mp4':  Metadata:  major_brand     : isom  minor_version   : 512  compatible_brands: isomiso2avc1mp41  encoder         : Lavf62.3.100  Stream #0:0(und): Video: h264 (High) (avc1 / 0x31637661), yuv420p(progressive), 360x636, q=2-31, 594  Metadata:  handler_name    : VideoHandler  vendor_id       : [0][0][0][0]  Stream #0:1(und): Audio: aac (LC) (mp4a / 0x6134706D), 44100 Hz, stereo, fltp, 128 kb/s (default)  Metadata:  handler_name    : SoundHandler  vendor_id       : [0][0][0][0]  Press [q] to stop, [?] for help  [mp4 @ 0xaaa80f700] Starting second pass: moving the moov atom to the beginning of the file  [out#0/mp4 @ 0xaab064300] video:484KiB audio:72KiB subtitle:0KiB other streams:0KiB global headers:0  frame=  138 fps=0.0 q=-1.0 Lsize=     562KiB time=-00:02:21.00 bitrate=N/A speed=N/A elapsed=0:00:00  ffmpeg version 8.0 Copyright (c) 2000-2025 the FFmpeg developers  built with Apple clang version 17.0.0 (clang-1700.0.13.3)  configuration: --prefix=/opt/homebrew/Cellar/ffmpeg/8.0_1 --enable-shared --enable-pthreads --enable  libavutil      60.  8.100 / 60.  8.100  libavcodec     62. 11.100 / 62. 11.100  libavformat    62.  3.100 / 62.  3.100  libavdevice    62.  1.100 / 62.  1.100  libavfilter    11.  4.100 / 11.  4.100  libswscale      9.  1.100 /  9.  1.100  libswresample   6.  1.100 /  6.  1.100  Input #0, mov,mp4,m4a,3gp,3g2,mj2, from '新的漫剧素材/雪烬梨香/6.mp4':  Metadata:  major_brand     : isom  minor_version   : 512  compatible_brands: isomiso2avc1mp41  comment         : vid:v02d0fg10004d6h66cfog65ukosk78v0  encoder         : Lavf58.76.100  Duration: 00:00:59.73, start: 0.000000, bitrate: 757 kb/s  Stream #0:0[0x1](und): Audio: aac (LC) (mp4a / 0x6134706D), 44100 Hz, stereo, fltp, 128 kb/s (defaul  Metadata:  handler_name    : SoundHandler  vendor_id       : [0][0][0][0]  Stream #0:1[0x2](und): Video: h264 (High) (avc1 / 0x31637661), yuv420p(tv, bt709, progressive), 360x  Metadata:  handler_name    : VideoHandler  vendor_id       : [0][0][0][0]  Stream mapping:  Stream #0:1 -> #0:0 (copy)  Stream #0:0 -> #0:1 (copy)  Output #0, mp4, to 'clips/雪烬梨香/temp/segment_1.mp4':  Metadata:  major_brand     : isom  minor_version   : 512  compatible_brands: isomiso2avc1mp41  comment         : vid:v02d0fg10004d6h66cfog65ukosk78v0  encoder         : Lavf62.3.100  Stream #0:0(und): Video: h264 (High) (avc1 / 0x31637661), yuv420p(tv, bt709, progressive), 360x636 [  Metadata:  handler_name    : VideoHandler  vendor_id       : [0][0][0][0]  Stream #0:1(und): Audio: aac (LC) (mp4a / 0x6134706D), 44100 Hz, stereo, fltp, 128 kb/s (default)  Metadata:  handler_name    : SoundHandler  vendor_id       : [0][0][0][0]  Press [q] to stop, [?] for help  [mp4 @ 0xb22c43700] Starting second pass: moving the moov atom to the beginning of the file  [out#0/mp4 @ 0xb23068300] video:4484KiB audio:923KiB subtitle:0KiB other streams:0KiB global headers  frame= 1772 fps=0.0 q=-1.0 Lsize=    5471KiB time=00:00:59.04 bitrate= 759.0kbits/s speed=2.93e+03x   ffmpeg version 8.0 Copyright (c) 2000-2025 the FFmpeg developers  built with Apple clang version 17.0.0 (clang-1700.0.13.3)  configuration: --prefix=/opt/homebrew/Cellar/ffmpeg/8.0_1 --enable-shared --enable-pthreads --enable  libavutil      60.  8.100 / 60.  8.100  libavcodec     62. 11.100 / 62. 11.100  libavformat    62.  3.100 / 62.  3.100  libavdevice    62.  1.100 / 62.  1.100  libavfilter    11.  4.100 / 11.  4.100  libswscale      9.  1.100 /  9.  1.100  libswresample   6.  1.100 /  6.  1.100  Input #0, mov,mp4,m4a,3gp,3g2,mj2, from '新的漫剧素材/雪烬梨香/7.mp4':  Metadata:  major_brand     : isom  minor_version   : 512  compatible_brands: isomiso2avc1mp41  comment         : vid:v02d0fg10004d6h669vog65u9pjo91fg  encoder         : Lavf58.76.100  Duration: 00:00:58.23, start: 0.000000, bitrate: 666 kb/s  Stream #0:0[0x1](und): Audio: aac (LC) (mp4a / 0x6134706D), 44100 Hz, stereo, fltp, 128 kb/s (defaul  Metadata:  handler_name    : SoundHandler  vendor_id       : [0][0][0][0]  Stream #0:1[0x2](und): Video: h264 (High) (avc1 / 0x31637661), yuv420p(tv, bt709, progressive), 360x  Metadata:  handler_name    : VideoHandler  vendor_id       : [0][0][0][0]  Stream mapping:  Stream #0:1 -> #0:0 (copy)  Stream #0:0 -> #0:1 (copy)  Output #0, mp4, to 'clips/雪烬梨香/temp/segment_2.mp4':  Metadata:  major_brand     : isom  minor_version   : 512  compatible_brands: isomiso2avc1mp41  comment         : vid:v02d0fg10004d6h669vog65u9pjo91fg  encoder         : Lavf62.3.100  Stream #0:0(und): Video: h264 (High) (avc1 / 0x31637661), yuv420p(tv, bt709, progressive), 360x636 [  Metadata:  handler_name    : VideoHandler  vendor_id       : [0][0][0][0]  Stream #0:1(und): Audio: aac (LC) (mp4a / 0x6134706D), 44100 Hz, stereo, fltp, 128 kb/s (default)  Metadata:  handler_name    : SoundHandler  vendor_id       : [0][0][0][0]  Press [q] to stop, [?] for help  [mp4 @ 0x833013700] Starting second pass: moving the moov atom to the beginning of the file  [out#0/mp4 @ 0x8330089c0] video:3761KiB audio:911KiB subtitle:0KiB other streams:0KiB global headers  frame= 1747 fps=0.0 q=-1.0 Lsize=    4735KiB time=00:00:58.16 bitrate= 666.8kbits/s speed=2.95e+03x 进度: [10/14] 50.0%进度: [10/14] 100.0%  ✅ 输出: clips/雪烬梨香/雪烬梨香_第5集3分26秒_第7集3分48秒.mp4
  ❌ 渲染失败: name 'progress' is not defined

渲染剪辑: 雪烬梨香_第5集3分26秒_第7集4分18秒.mp4
  起始: 第5集3分26秒
  结束: 第7集4分18秒
  时长: 176.320秒
  跨集: 是
  片段数: 3
    1. 第5集 206.100-65.000秒
    2. 第6集 0.000-59.000秒
    3. 第7集 0.000-258.420秒
  ffmpeg version 8.0 Copyright (c) 2000-2025 the FFmpeg developers  built with Apple clang version 17.0.0 (clang-1700.0.13.3)  configuration: --prefix=/opt/homebrew/Cellar/ffmpeg/8.0_1 --enable-shared --enable-pthreads --enable  libavutil      60.  8.100 / 60.  8.100  libavcodec     62. 11.100 / 62. 11.100  libavformat    62.  3.100 / 62.  3.100  libavdevice    62.  1.100 / 62.  1.100  libavfilter    11.  4.100 / 11.  4.100  libswscale      9.  1.100 /  9.  1.100  libswresample   6.  1.100 /  6.  1.100  Input #0, mov,mp4,m4a,3gp,3g2,mj2, from '新的漫剧素材/雪烬梨香/5.mp4':  Metadata:  major_brand     : isom  minor_version   : 512  compatible_brands: isomiso2avc1mp41  encoder         : Lavf58.76.100  Duration: 00:01:05.97, start: 0.000000, bitrate: 731 kb/s  Stream #0:0[0x1](und): Video: h264 (High) (avc1 / 0x31637661), yuv420p(progressive), 360x636, 594 kb  Metadata:  handler_name    : VideoHandler  vendor_id       : [0][0][0][0]  Stream #0:1[0x2](und): Audio: aac (LC) (mp4a / 0x6134706D), 44100 Hz, stereo, fltp, 128 kb/s (defaul  Metadata:  handler_name    : SoundHandler  vendor_id       : [0][0][0][0]  Stream mapping:  Stream #0:0 -> #0:0 (copy)  Stream #0:1 -> #0:1 (copy)  Output #0, mp4, to 'clips/雪烬梨香/temp/segment_0.mp4':  Metadata:  major_brand     : isom  minor_version   : 512  compatible_brands: isomiso2avc1mp41  encoder         : Lavf62.3.100  Stream #0:0(und): Video: h264 (High) (avc1 / 0x31637661), yuv420p(progressive), 360x636, q=2-31, 594  Metadata:  handler_name    : VideoHandler  vendor_id       : [0][0][0][0]  Stream #0:1(und): Audio: aac (LC) (mp4a / 0x6134706D), 44100 Hz, stereo, fltp, 128 kb/s (default)  Metadata:  handler_name    : SoundHandler  vendor_id       : [0][0][0][0]  Press [q] to stop, [?] for help  [mp4 @ 0xbb6c43700] Starting second pass: moving the moov atom to the beginning of the file  [out#0/mp4 @ 0xbb7064300] video:484KiB audio:72KiB subtitle:0KiB other streams:0KiB global headers:0  frame=  138 fps=0.0 q=-1.0 Lsize=     562KiB time=-00:02:21.00 bitrate=N/A speed=N/A elapsed=0:00:00  ffmpeg version 8.0 Copyright (c) 2000-2025 the FFmpeg developers  built with Apple clang version 17.0.0 (clang-1700.0.13.3)  configuration: --prefix=/opt/homebrew/Cellar/ffmpeg/8.0_1 --enable-shared --enable-pthreads --enable  libavutil      60.  8.100 / 60.  8.100  libavcodec     62. 11.100 / 62. 11.100  libavformat    62.  3.100 / 62.  3.100  libavdevice    62.  1.100 / 62.  1.100  libavfilter    11.  4.100 / 11.  4.100  libswscale      9.  1.100 /  9.  1.100  libswresample   6.  1.100 /  6.  1.100  Input #0, mov,mp4,m4a,3gp,3g2,mj2, from '新的漫剧素材/雪烬梨香/6.mp4':  Metadata:  major_brand     : isom  minor_version   : 512  compatible_brands: isomiso2avc1mp41  comment         : vid:v02d0fg10004d6h66cfog65ukosk78v0  encoder         : Lavf58.76.100  Duration: 00:00:59.73, start: 0.000000, bitrate: 757 kb/s  Stream #0:0[0x1](und): Audio: aac (LC) (mp4a / 0x6134706D), 44100 Hz, stereo, fltp, 128 kb/s (defaul  Metadata:  handler_name    : SoundHandler  vendor_id       : [0][0][0][0]  Stream #0:1[0x2](und): Video: h264 (High) (avc1 / 0x31637661), yuv420p(tv, bt709, progressive), 360x  Metadata:  handler_name    : VideoHandler  vendor_id       : [0][0][0][0]  Stream mapping:  Stream #0:1 -> #0:0 (copy)  Stream #0:0 -> #0:1 (copy)  Output #0, mp4, to 'clips/雪烬梨香/temp/segment_1.mp4':  Metadata:  major_brand     : isom  minor_version   : 512  compatible_brands: isomiso2avc1mp41  comment         : vid:v02d0fg10004d6h66cfog65ukosk78v0  encoder         : Lavf62.3.100  Stream #0:0(und): Video: h264 (High) (avc1 / 0x31637661), yuv420p(tv, bt709, progressive), 360x636 [  Metadata:  handler_name    : VideoHandler  vendor_id       : [0][0][0][0]  Stream #0:1(und): Audio: aac (LC) (mp4a / 0x6134706D), 44100 Hz, stereo, fltp, 128 kb/s (default)  Metadata:  handler_name    : SoundHandler  vendor_id       : [0][0][0][0]  Press [q] to stop, [?] for help  [mp4 @ 0x92506b700] Starting second pass: moving the moov atom to the beginning of the file  [out#0/mp4 @ 0x925038e40] video:4484KiB audio:923KiB subtitle:0KiB other streams:0KiB global headers  frame= 1772 fps=0.0 q=-1.0 Lsize=    5471KiB time=00:00:59.06 bitrate= 758.8kbits/s speed=3.33e+03x   ffmpeg version 8.0 Copyright (c) 2000-2025 the FFmpeg developers  built with Apple clang version 17.0.0 (clang-1700.0.13.3)  configuration: --prefix=/opt/homebrew/Cellar/ffmpeg/8.0_1 --enable-shared --enable-pthreads --enable  libavutil      60.  8.100 / 60.  8.100  libavcodec     62. 11.100 / 62. 11.100  libavformat    62.  3.100 / 62.  3.100  libavdevice    62.  1.100 / 62.  1.100  libavfilter    11.  4.100 / 11.  4.100  libswscale      9.  1.100 /  9.  1.100  libswresample   6.  1.100 /  6.  1.100  Input #0, mov,mp4,m4a,3gp,3g2,mj2, from '新的漫剧素材/雪烬梨香/7.mp4':  Metadata:  major_brand     : isom  minor_version   : 512  compatible_brands: isomiso2avc1mp41  comment         : vid:v02d0fg10004d6h669vog65u9pjo91fg  encoder         : Lavf58.76.100  Duration: 00:00:58.23, start: 0.000000, bitrate: 666 kb/s  Stream #0:0[0x1](und): Audio: aac (LC) (mp4a / 0x6134706D), 44100 Hz, stereo, fltp, 128 kb/s (defaul  Metadata:  handler_name    : SoundHandler  vendor_id       : [0][0][0][0]  Stream #0:1[0x2](und): Video: h264 (High) (avc1 / 0x31637661), yuv420p(tv, bt709, progressive), 360x  Metadata:  handler_name    : VideoHandler  vendor_id       : [0][0][0][0]  Stream mapping:  Stream #0:1 -> #0:0 (copy)  Stream #0:0 -> #0:1 (copy)  Output #0, mp4, to 'clips/雪烬梨香/temp/segment_2.mp4':  Metadata:  major_brand     : isom  minor_version   : 512  compatible_brands: isomiso2avc1mp41  comment         : vid:v02d0fg10004d6h669vog65u9pjo91fg  encoder         : Lavf62.3.100  Stream #0:0(und): Video: h264 (High) (avc1 / 0x31637661), yuv420p(tv, bt709, progressive), 360x636 [  Metadata:  handler_name    : VideoHandler  vendor_id       : [0][0][0][0]  Stream #0:1(und): Audio: aac (LC) (mp4a / 0x6134706D), 44100 Hz, stereo, fltp, 128 kb/s (default)  Metadata:  handler_name    : SoundHandler  vendor_id       : [0][0][0][0]  Press [q] to stop, [?] for help  [mp4 @ 0xaf2c3b700] Starting second pass: moving the moov atom to the beginning of the file  [out#0/mp4 @ 0xaf2c44300] video:3761KiB audio:911KiB subtitle:0KiB other streams:0KiB global headers  frame= 1747 fps=0.0 q=-1.0 Lsize=    4735KiB time=00:00:58.16 bitrate= 666.8kbits/s speed=2.68e+03x 进度: [11/14] 50.0%进度: [11/14] 100.0%  ✅ 输出: clips/雪烬梨香/雪烬梨香_第5集3分26秒_第7集4分18秒.mp4
  ❌ 渲染失败: name 'progress' is not defined

渲染剪辑: 雪烬梨香_第5集3分26秒_第9集3分35秒.mp4
  起始: 第5集3分26秒
  结束: 第9集3分35秒
  时长: 191.800秒
  跨集: 是
  片段数: 4
    1. 第5集 206.100-65.000秒
    2. 第6集 0.000-59.000秒
    3. 第7集 0.000-58.000秒
    4. 第9集 0.000-215.900秒
  ffmpeg version 8.0 Copyright (c) 2000-2025 the FFmpeg developers  built with Apple clang version 17.0.0 (clang-1700.0.13.3)  configuration: --prefix=/opt/homebrew/Cellar/ffmpeg/8.0_1 --enable-shared --enable-pthreads --enable  libavutil      60.  8.100 / 60.  8.100  libavcodec     62. 11.100 / 62. 11.100  libavformat    62.  3.100 / 62.  3.100  libavdevice    62.  1.100 / 62.  1.100  libavfilter    11.  4.100 / 11.  4.100  libswscale      9.  1.100 /  9.  1.100  libswresample   6.  1.100 /  6.  1.100  Input #0, mov,mp4,m4a,3gp,3g2,mj2, from '新的漫剧素材/雪烬梨香/5.mp4':  Metadata:  major_brand     : isom  minor_version   : 512  compatible_brands: isomiso2avc1mp41  encoder         : Lavf58.76.100  Duration: 00:01:05.97, start: 0.000000, bitrate: 731 kb/s  Stream #0:0[0x1](und): Video: h264 (High) (avc1 / 0x31637661), yuv420p(progressive), 360x636, 594 kb  Metadata:  handler_name    : VideoHandler  vendor_id       : [0][0][0][0]  Stream #0:1[0x2](und): Audio: aac (LC) (mp4a / 0x6134706D), 44100 Hz, stereo, fltp, 128 kb/s (defaul  Metadata:  handler_name    : SoundHandler  vendor_id       : [0][0][0][0]  Stream mapping:  Stream #0:0 -> #0:0 (copy)  Stream #0:1 -> #0:1 (copy)  Output #0, mp4, to 'clips/雪烬梨香/temp/segment_0.mp4':  Metadata:  major_brand     : isom  minor_version   : 512  compatible_brands: isomiso2avc1mp41  encoder         : Lavf62.3.100  Stream #0:0(und): Video: h264 (High) (avc1 / 0x31637661), yuv420p(progressive), 360x636, q=2-31, 594  Metadata:  handler_name    : VideoHandler  vendor_id       : [0][0][0][0]  Stream #0:1(und): Audio: aac (LC) (mp4a / 0x6134706D), 44100 Hz, stereo, fltp, 128 kb/s (default)  Metadata:  handler_name    : SoundHandler  vendor_id       : [0][0][0][0]  Press [q] to stop, [?] for help  [mp4 @ 0x8b8c3b700] Starting second pass: moving the moov atom to the beginning of the file  [out#0/mp4 @ 0x8b8c44300] video:484KiB audio:72KiB subtitle:0KiB other streams:0KiB global headers:0  frame=  138 fps=0.0 q=-1.0 Lsize=     562KiB time=-00:02:20.99 bitrate=N/A speed=N/A elapsed=0:00:00  ffmpeg version 8.0 Copyright (c) 2000-2025 the FFmpeg developers  built with Apple clang version 17.0.0 (clang-1700.0.13.3)  configuration: --prefix=/opt/homebrew/Cellar/ffmpeg/8.0_1 --enable-shared --enable-pthreads --enable  libavutil      60.  8.100 / 60.  8.100  libavcodec     62. 11.100 / 62. 11.100  libavformat    62.  3.100 / 62.  3.100  libavdevice    62.  1.100 / 62.  1.100  libavfilter    11.  4.100 / 11.  4.100  libswscale      9.  1.100 /  9.  1.100  libswresample   6.  1.100 /  6.  1.100  Input #0, mov,mp4,m4a,3gp,3g2,mj2, from '新的漫剧素材/雪烬梨香/6.mp4':  Metadata:  major_brand     : isom  minor_version   : 512  compatible_brands: isomiso2avc1mp41  comment         : vid:v02d0fg10004d6h66cfog65ukosk78v0  encoder         : Lavf58.76.100  Duration: 00:00:59.73, start: 0.000000, bitrate: 757 kb/s  Stream #0:0[0x1](und): Audio: aac (LC) (mp4a / 0x6134706D), 44100 Hz, stereo, fltp, 128 kb/s (defaul  Metadata:  handler_name    : SoundHandler  vendor_id       : [0][0][0][0]  Stream #0:1[0x2](und): Video: h264 (High) (avc1 / 0x31637661), yuv420p(tv, bt709, progressive), 360x  Metadata:  handler_name    : VideoHandler  vendor_id       : [0][0][0][0]  Stream mapping:  Stream #0:1 -> #0:0 (copy)  Stream #0:0 -> #0:1 (copy)  Output #0, mp4, to 'clips/雪烬梨香/temp/segment_1.mp4':  Metadata:  major_brand     : isom  minor_version   : 512  compatible_brands: isomiso2avc1mp41  comment         : vid:v02d0fg10004d6h66cfog65ukosk78v0  encoder         : Lavf62.3.100  Stream #0:0(und): Video: h264 (High) (avc1 / 0x31637661), yuv420p(tv, bt709, progressive), 360x636 [  Metadata:  handler_name    : VideoHandler  vendor_id       : [0][0][0][0]  Stream #0:1(und): Audio: aac (LC) (mp4a / 0x6134706D), 44100 Hz, stereo, fltp, 128 kb/s (default)  Metadata:  handler_name    : SoundHandler  vendor_id       : [0][0][0][0]  Press [q] to stop, [?] for help  [mp4 @ 0xbaec37700] Starting second pass: moving the moov atom to the beginning of the file  [out#0/mp4 @ 0xbaec60300] video:4484KiB audio:923KiB subtitle:0KiB other streams:0KiB global headers  frame= 1772 fps=0.0 q=-1.0 Lsize=    5471KiB time=00:00:59.09 bitrate= 758.4kbits/s speed=4.66e+03x   ffmpeg version 8.0 Copyright (c) 2000-2025 the FFmpeg developers  built with Apple clang version 17.0.0 (clang-1700.0.13.3)  configuration: --prefix=/opt/homebrew/Cellar/ffmpeg/8.0_1 --enable-shared --enable-pthreads --enable  libavutil      60.  8.100 / 60.  8.100  libavcodec     62. 11.100 / 62. 11.100  libavformat    62.  3.100 / 62.  3.100  libavdevice    62.  1.100 / 62.  1.100  libavfilter    11.  4.100 / 11.  4.100  libswscale      9.  1.100 /  9.  1.100  libswresample   6.  1.100 /  6.  1.100  Input #0, mov,mp4,m4a,3gp,3g2,mj2, from '新的漫剧素材/雪烬梨香/7.mp4':  Metadata:  major_brand     : isom  minor_version   : 512  compatible_brands: isomiso2avc1mp41  comment         : vid:v02d0fg10004d6h669vog65u9pjo91fg  encoder         : Lavf58.76.100  Duration: 00:00:58.23, start: 0.000000, bitrate: 666 kb/s  Stream #0:0[0x1](und): Audio: aac (LC) (mp4a / 0x6134706D), 44100 Hz, stereo, fltp, 128 kb/s (defaul  Metadata:  handler_name    : SoundHandler  vendor_id       : [0][0][0][0]  Stream #0:1[0x2](und): Video: h264 (High) (avc1 / 0x31637661), yuv420p(tv, bt709, progressive), 360x  Metadata:  handler_name    : VideoHandler  vendor_id       : [0][0][0][0]  Stream mapping:  Stream #0:1 -> #0:0 (copy)  Stream #0:0 -> #0:1 (copy)  Output #0, mp4, to 'clips/雪烬梨香/temp/segment_2.mp4':  Metadata:  major_brand     : isom  minor_version   : 512  compatible_brands: isomiso2avc1mp41  comment         : vid:v02d0fg10004d6h669vog65u9pjo91fg  encoder         : Lavf62.3.100  Stream #0:0(und): Video: h264 (High) (avc1 / 0x31637661), yuv420p(tv, bt709, progressive), 360x636 [  Metadata:  handler_name    : VideoHandler  vendor_id       : [0][0][0][0]  Stream #0:1(und): Audio: aac (LC) (mp4a / 0x6134706D), 44100 Hz, stereo, fltp, 128 kb/s (default)  Metadata:  handler_name    : SoundHandler  vendor_id       : [0][0][0][0]  Press [q] to stop, [?] for help  [mp4 @ 0x961403700] Starting second pass: moving the moov atom to the beginning of the file  [out#0/mp4 @ 0x9610089c0] video:3758KiB audio:907KiB subtitle:0KiB other streams:0KiB global headers  frame= 1742 fps=0.0 q=-1.0 Lsize=    4728KiB time=00:00:58.09 bitrate= 666.7kbits/s speed=5.64e+03x   ffmpeg version 8.0 Copyright (c) 2000-2025 the FFmpeg developers  built with Apple clang version 17.0.0 (clang-1700.0.13.3)  configuration: --prefix=/opt/homebrew/Cellar/ffmpeg/8.0_1 --enable-shared --enable-pthreads --enable  libavutil      60.  8.100 / 60.  8.100  libavcodec     62. 11.100 / 62. 11.100  libavformat    62.  3.100 / 62.  3.100  libavdevice    62.  1.100 / 62.  1.100  libavfilter    11.  4.100 / 11.  4.100  libswscale      9.  1.100 /  9.  1.100  libswresample   6.  1.100 /  6.  1.100  Input #0, mov,mp4,m4a,3gp,3g2,mj2, from '新的漫剧素材/雪烬梨香/9.mp4':  Metadata:  major_brand     : isom  minor_version   : 512  compatible_brands: isomiso2avc1mp41  comment         : vid:v02d0fg10004d6h66cfog65i427m6mb0  encoder         : Lavf58.76.100  Duration: 00:01:03.77, start: 0.000000, bitrate: 746 kb/s  Stream #0:0[0x1](und): Audio: aac (LC) (mp4a / 0x6134706D), 44100 Hz, stereo, fltp, 128 kb/s (defaul  Metadata:  handler_name    : SoundHandler  vendor_id       : [0][0][0][0]  Stream #0:1[0x2](und): Video: h264 (High) (avc1 / 0x31637661), yuv420p(tv, bt709, progressive), 360x  Metadata:  handler_name    : VideoHandler  vendor_id       : [0][0][0][0]  Stream mapping:  Stream #0:1 -> #0:0 (copy)  Stream #0:0 -> #0:1 (copy)  Output #0, mp4, to 'clips/雪烬梨香/temp/segment_3.mp4':  Metadata:  major_brand     : isom  minor_version   : 512  compatible_brands: isomiso2avc1mp41  comment         : vid:v02d0fg10004d6h66cfog65i427m6mb0  encoder         : Lavf62.3.100  Stream #0:0(und): Video: h264 (High) (avc1 / 0x31637661), yuv420p(tv, bt709, progressive), 360x636 [  Metadata:  handler_name    : VideoHandler  vendor_id       : [0][0][0][0]  Stream #0:1(und): Audio: aac (LC) (mp4a / 0x6134706D), 44100 Hz, stereo, fltp, 128 kb/s (default)  Metadata:  handler_name    : SoundHandler  vendor_id       : [0][0][0][0]  Press [q] to stop, [?] for help  [mp4 @ 0xc5d06b700] Starting second pass: moving the moov atom to the beginning of the file  [out#0/mp4 @ 0xc5d408300] video:4745KiB audio:997KiB subtitle:0KiB other streams:0KiB global headers  frame= 1913 fps=0.0 q=-1.0 Lsize=    5811KiB time=00:01:03.70 bitrate= 747.4kbits/s speed=4.37e+03x 进度: [12/14] 50.0%进度: [12/14] 100.0%  ✅ 输出: clips/雪烬梨香/雪烬梨香_第5集3分26秒_第9集3分35秒.mp4
  ❌ 渲染失败: name 'progress' is not defined

渲染剪辑: 雪烬梨香_第5集3分26秒_第9集4分22秒.mp4
  起始: 第5集3分26秒
  结束: 第9集4分22秒
  时长: 238.520秒
  跨集: 是
  片段数: 4
    1. 第5集 206.100-65.000秒
    2. 第6集 0.000-59.000秒
    3. 第7集 0.000-58.000秒
    4. 第9集 0.000-262.620秒
  ffmpeg version 8.0 Copyright (c) 2000-2025 the FFmpeg developers  built with Apple clang version 17.0.0 (clang-1700.0.13.3)  configuration: --prefix=/opt/homebrew/Cellar/ffmpeg/8.0_1 --enable-shared --enable-pthreads --enable  libavutil      60.  8.100 / 60.  8.100  libavcodec     62. 11.100 / 62. 11.100  libavformat    62.  3.100 / 62.  3.100  libavdevice    62.  1.100 / 62.  1.100  libavfilter    11.  4.100 / 11.  4.100  libswscale      9.  1.100 /  9.  1.100  libswresample   6.  1.100 /  6.  1.100  Input #0, mov,mp4,m4a,3gp,3g2,mj2, from '新的漫剧素材/雪烬梨香/5.mp4':  Metadata:  major_brand     : isom  minor_version   : 512  compatible_brands: isomiso2avc1mp41  encoder         : Lavf58.76.100  Duration: 00:01:05.97, start: 0.000000, bitrate: 731 kb/s  Stream #0:0[0x1](und): Video: h264 (High) (avc1 / 0x31637661), yuv420p(progressive), 360x636, 594 kb  Metadata:  handler_name    : VideoHandler  vendor_id       : [0][0][0][0]  Stream #0:1[0x2](und): Audio: aac (LC) (mp4a / 0x6134706D), 44100 Hz, stereo, fltp, 128 kb/s (defaul  Metadata:  handler_name    : SoundHandler  vendor_id       : [0][0][0][0]  Stream mapping:  Stream #0:0 -> #0:0 (copy)  Stream #0:1 -> #0:1 (copy)  Output #0, mp4, to 'clips/雪烬梨香/temp/segment_0.mp4':  Metadata:  major_brand     : isom  minor_version   : 512  compatible_brands: isomiso2avc1mp41  encoder         : Lavf62.3.100  Stream #0:0(und): Video: h264 (High) (avc1 / 0x31637661), yuv420p(progressive), 360x636, q=2-31, 594  Metadata:  handler_name    : VideoHandler  vendor_id       : [0][0][0][0]  Stream #0:1(und): Audio: aac (LC) (mp4a / 0x6134706D), 44100 Hz, stereo, fltp, 128 kb/s (default)  Metadata:  handler_name    : SoundHandler  vendor_id       : [0][0][0][0]  Press [q] to stop, [?] for help  [mp4 @ 0x8fcc43700] Starting second pass: moving the moov atom to the beginning of the file  [out#0/mp4 @ 0x8fd060300] video:484KiB audio:72KiB subtitle:0KiB other streams:0KiB global headers:0  frame=  138 fps=0.0 q=-1.0 Lsize=     562KiB time=-00:02:20.99 bitrate=N/A speed=N/A elapsed=0:00:00  ffmpeg version 8.0 Copyright (c) 2000-2025 the FFmpeg developers  built with Apple clang version 17.0.0 (clang-1700.0.13.3)  configuration: --prefix=/opt/homebrew/Cellar/ffmpeg/8.0_1 --enable-shared --enable-pthreads --enable  libavutil      60.  8.100 / 60.  8.100  libavcodec     62. 11.100 / 62. 11.100  libavformat    62.  3.100 / 62.  3.100  libavdevice    62.  1.100 / 62.  1.100  libavfilter    11.  4.100 / 11.  4.100  libswscale      9.  1.100 /  9.  1.100  libswresample   6.  1.100 /  6.  1.100  Input #0, mov,mp4,m4a,3gp,3g2,mj2, from '新的漫剧素材/雪烬梨香/6.mp4':  Metadata:  major_brand     : isom  minor_version   : 512  compatible_brands: isomiso2avc1mp41  comment         : vid:v02d0fg10004d6h66cfog65ukosk78v0  encoder         : Lavf58.76.100  Duration: 00:00:59.73, start: 0.000000, bitrate: 757 kb/s  Stream #0:0[0x1](und): Audio: aac (LC) (mp4a / 0x6134706D), 44100 Hz, stereo, fltp, 128 kb/s (defaul  Metadata:  handler_name    : SoundHandler  vendor_id       : [0][0][0][0]  Stream #0:1[0x2](und): Video: h264 (High) (avc1 / 0x31637661), yuv420p(tv, bt709, progressive), 360x  Metadata:  handler_name    : VideoHandler  vendor_id       : [0][0][0][0]  Stream mapping:  Stream #0:1 -> #0:0 (copy)  Stream #0:0 -> #0:1 (copy)  Output #0, mp4, to 'clips/雪烬梨香/temp/segment_1.mp4':  Metadata:  major_brand     : isom  minor_version   : 512  compatible_brands: isomiso2avc1mp41  comment         : vid:v02d0fg10004d6h66cfog65ukosk78v0  encoder         : Lavf62.3.100  Stream #0:0(und): Video: h264 (High) (avc1 / 0x31637661), yuv420p(tv, bt709, progressive), 360x636 [  Metadata:  handler_name    : VideoHandler  vendor_id       : [0][0][0][0]  Stream #0:1(und): Audio: aac (LC) (mp4a / 0x6134706D), 44100 Hz, stereo, fltp, 128 kb/s (default)  Metadata:  handler_name    : SoundHandler  vendor_id       : [0][0][0][0]  Press [q] to stop, [?] for help  [mp4 @ 0x7f706b700] Starting second pass: moving the moov atom to the beginning of the file  [out#0/mp4 @ 0x7f7038e40] video:4484KiB audio:923KiB subtitle:0KiB other streams:0KiB global headers  frame= 1772 fps=0.0 q=-1.0 Lsize=    5471KiB time=00:00:59.03 bitrate= 759.2kbits/s speed=3.33e+03x   ffmpeg version 8.0 Copyright (c) 2000-2025 the FFmpeg developers  built with Apple clang version 17.0.0 (clang-1700.0.13.3)  configuration: --prefix=/opt/homebrew/Cellar/ffmpeg/8.0_1 --enable-shared --enable-pthreads --enable  libavutil      60.  8.100 / 60.  8.100  libavcodec     62. 11.100 / 62. 11.100  libavformat    62.  3.100 / 62.  3.100  libavdevice    62.  1.100 / 62.  1.100  libavfilter    11.  4.100 / 11.  4.100  libswscale      9.  1.100 /  9.  1.100  libswresample   6.  1.100 /  6.  1.100  Input #0, mov,mp4,m4a,3gp,3g2,mj2, from '新的漫剧素材/雪烬梨香/7.mp4':  Metadata:  major_brand     : isom  minor_version   : 512  compatible_brands: isomiso2avc1mp41  comment         : vid:v02d0fg10004d6h669vog65u9pjo91fg  encoder         : Lavf58.76.100  Duration: 00:00:58.23, start: 0.000000, bitrate: 666 kb/s  Stream #0:0[0x1](und): Audio: aac (LC) (mp4a / 0x6134706D), 44100 Hz, stereo, fltp, 128 kb/s (defaul  Metadata:  handler_name    : SoundHandler  vendor_id       : [0][0][0][0]  Stream #0:1[0x2](und): Video: h264 (High) (avc1 / 0x31637661), yuv420p(tv, bt709, progressive), 360x  Metadata:  handler_name    : VideoHandler  vendor_id       : [0][0][0][0]  Stream mapping:  Stream #0:1 -> #0:0 (copy)  Stream #0:0 -> #0:1 (copy)  Output #0, mp4, to 'clips/雪烬梨香/temp/segment_2.mp4':  Metadata:  major_brand     : isom  minor_version   : 512  compatible_brands: isomiso2avc1mp41  comment         : vid:v02d0fg10004d6h669vog65u9pjo91fg  encoder         : Lavf62.3.100  Stream #0:0(und): Video: h264 (High) (avc1 / 0x31637661), yuv420p(tv, bt709, progressive), 360x636 [  Metadata:  handler_name    : VideoHandler  vendor_id       : [0][0][0][0]  Stream #0:1(und): Audio: aac (LC) (mp4a / 0x6134706D), 44100 Hz, stereo, fltp, 128 kb/s (default)  Metadata:  handler_name    : SoundHandler  vendor_id       : [0][0][0][0]  Press [q] to stop, [?] for help  [mp4 @ 0x926837700] Starting second pass: moving the moov atom to the beginning of the file  [out#0/mp4 @ 0x927428e40] video:3758KiB audio:907KiB subtitle:0KiB other streams:0KiB global headers  frame= 1742 fps=0.0 q=-1.0 Lsize=    4728KiB time=00:00:58.06 bitrate= 667.0kbits/s speed=3.47e+03x   ffmpeg version 8.0 Copyright (c) 2000-2025 the FFmpeg developers  built with Apple clang version 17.0.0 (clang-1700.0.13.3)  configuration: --prefix=/opt/homebrew/Cellar/ffmpeg/8.0_1 --enable-shared --enable-pthreads --enable  libavutil      60.  8.100 / 60.  8.100  libavcodec     62. 11.100 / 62. 11.100  libavformat    62.  3.100 / 62.  3.100  libavdevice    62.  1.100 / 62.  1.100  libavfilter    11.  4.100 / 11.  4.100  libswscale      9.  1.100 /  9.  1.100  libswresample   6.  1.100 /  6.  1.100  Input #0, mov,mp4,m4a,3gp,3g2,mj2, from '新的漫剧素材/雪烬梨香/9.mp4':  Metadata:  major_brand     : isom  minor_version   : 512  compatible_brands: isomiso2avc1mp41  comment         : vid:v02d0fg10004d6h66cfog65i427m6mb0  encoder         : Lavf58.76.100  Duration: 00:01:03.77, start: 0.000000, bitrate: 746 kb/s  Stream #0:0[0x1](und): Audio: aac (LC) (mp4a / 0x6134706D), 44100 Hz, stereo, fltp, 128 kb/s (defaul  Metadata:  handler_name    : SoundHandler  vendor_id       : [0][0][0][0]  Stream #0:1[0x2](und): Video: h264 (High) (avc1 / 0x31637661), yuv420p(tv, bt709, progressive), 360x  Metadata:  handler_name    : VideoHandler  vendor_id       : [0][0][0][0]  Stream mapping:  Stream #0:1 -> #0:0 (copy)  Stream #0:0 -> #0:1 (copy)  Output #0, mp4, to 'clips/雪烬梨香/temp/segment_3.mp4':  Metadata:  major_brand     : isom  minor_version   : 512  compatible_brands: isomiso2avc1mp41  comment         : vid:v02d0fg10004d6h66cfog65i427m6mb0  encoder         : Lavf62.3.100  Stream #0:0(und): Video: h264 (High) (avc1 / 0x31637661), yuv420p(tv, bt709, progressive), 360x636 [  Metadata:  handler_name    : VideoHandler  vendor_id       : [0][0][0][0]  Stream #0:1(und): Audio: aac (LC) (mp4a / 0x6134706D), 44100 Hz, stereo, fltp, 128 kb/s (default)  Metadata:  handler_name    : SoundHandler  vendor_id       : [0][0][0][0]  Press [q] to stop, [?] for help  [mp4 @ 0xa04c3b700] Starting second pass: moving the moov atom to the beginning of the file  [out#0/mp4 @ 0xa04c64300] video:4745KiB audio:997KiB subtitle:0KiB other streams:0KiB global headers  frame= 1913 fps=0.0 q=-1.0 Lsize=    5811KiB time=00:01:03.70 bitrate= 747.4kbits/s speed=4.94e+03x 进度: [13/14] 50.0%进度: [13/14] 100.0%  ✅ 输出: clips/雪烬梨香/雪烬梨香_第5集3分26秒_第9集4分22秒.mp4
  ❌ 渲染失败: name 'progress' is not defined

渲染剪辑: 雪烬梨香_第5集3分26秒_第10集3分51秒.mp4
  起始: 第5集3分26秒
  结束: 第10集3分51秒
  时长: 270.200秒
  跨集: 是
  片段数: 5
    1. 第5集 206.100-65.000秒
    2. 第6集 0.000-59.000秒
    3. 第7集 0.000-58.000秒
    4. 第9集 0.000-63.000秒
    5. 第10集 0.000-231.300秒
  ffmpeg version 8.0 Copyright (c) 2000-2025 the FFmpeg developers  built with Apple clang version 17.0.0 (clang-1700.0.13.3)  configuration: --prefix=/opt/homebrew/Cellar/ffmpeg/8.0_1 --enable-shared --enable-pthreads --enable  libavutil      60.  8.100 / 60.  8.100  libavcodec     62. 11.100 / 62. 11.100  libavformat    62.  3.100 / 62.  3.100  libavdevice    62.  1.100 / 62.  1.100  libavfilter    11.  4.100 / 11.  4.100  libswscale      9.  1.100 /  9.  1.100  libswresample   6.  1.100 /  6.  1.100  Input #0, mov,mp4,m4a,3gp,3g2,mj2, from '新的漫剧素材/雪烬梨香/5.mp4':  Metadata:  major_brand     : isom  minor_version   : 512  compatible_brands: isomiso2avc1mp41  encoder         : Lavf58.76.100  Duration: 00:01:05.97, start: 0.000000, bitrate: 731 kb/s  Stream #0:0[0x1](und): Video: h264 (High) (avc1 / 0x31637661), yuv420p(progressive), 360x636, 594 kb  Metadata:  handler_name    : VideoHandler  vendor_id       : [0][0][0][0]  Stream #0:1[0x2](und): Audio: aac (LC) (mp4a / 0x6134706D), 44100 Hz, stereo, fltp, 128 kb/s (defaul  Metadata:  handler_name    : SoundHandler  vendor_id       : [0][0][0][0]  Stream mapping:  Stream #0:0 -> #0:0 (copy)  Stream #0:1 -> #0:1 (copy)  Output #0, mp4, to 'clips/雪烬梨香/temp/segment_0.mp4':  Metadata:  major_brand     : isom  minor_version   : 512  compatible_brands: isomiso2avc1mp41  encoder         : Lavf62.3.100  Stream #0:0(und): Video: h264 (High) (avc1 / 0x31637661), yuv420p(progressive), 360x636, q=2-31, 594  Metadata:  handler_name    : VideoHandler  vendor_id       : [0][0][0][0]  Stream #0:1(und): Audio: aac (LC) (mp4a / 0x6134706D), 44100 Hz, stereo, fltp, 128 kb/s (default)  Metadata:  handler_name    : SoundHandler  vendor_id       : [0][0][0][0]  Press [q] to stop, [?] for help  [mp4 @ 0xa38c5b700] Starting second pass: moving the moov atom to the beginning of the file  [out#0/mp4 @ 0xa38c28e40] video:484KiB audio:72KiB subtitle:0KiB other streams:0KiB global headers:0  frame=  138 fps=0.0 q=-1.0 Lsize=     562KiB time=-00:02:20.96 bitrate=N/A speed=N/A elapsed=0:00:00  ffmpeg version 8.0 Copyright (c) 2000-2025 the FFmpeg developers  built with Apple clang version 17.0.0 (clang-1700.0.13.3)  configuration: --prefix=/opt/homebrew/Cellar/ffmpeg/8.0_1 --enable-shared --enable-pthreads --enable  libavutil      60.  8.100 / 60.  8.100  libavcodec     62. 11.100 / 62. 11.100  libavformat    62.  3.100 / 62.  3.100  libavdevice    62.  1.100 / 62.  1.100  libavfilter    11.  4.100 / 11.  4.100  libswscale      9.  1.100 /  9.  1.100  libswresample   6.  1.100 /  6.  1.100  Input #0, mov,mp4,m4a,3gp,3g2,mj2, from '新的漫剧素材/雪烬梨香/6.mp4':  Metadata:  major_brand     : isom  minor_version   : 512  compatible_brands: isomiso2avc1mp41  comment         : vid:v02d0fg10004d6h66cfog65ukosk78v0  encoder         : Lavf58.76.100  Duration: 00:00:59.73, start: 0.000000, bitrate: 757 kb/s  Stream #0:0[0x1](und): Audio: aac (LC) (mp4a / 0x6134706D), 44100 Hz, stereo, fltp, 128 kb/s (defaul  Metadata:  handler_name    : SoundHandler  vendor_id       : [0][0][0][0]  Stream #0:1[0x2](und): Video: h264 (High) (avc1 / 0x31637661), yuv420p(tv, bt709, progressive), 360x  Metadata:  handler_name    : VideoHandler  vendor_id       : [0][0][0][0]  Stream mapping:  Stream #0:1 -> #0:0 (copy)  Stream #0:0 -> #0:1 (copy)  Output #0, mp4, to 'clips/雪烬梨香/temp/segment_1.mp4':  Metadata:  major_brand     : isom  minor_version   : 512  compatible_brands: isomiso2avc1mp41  comment         : vid:v02d0fg10004d6h66cfog65ukosk78v0  encoder         : Lavf62.3.100  Stream #0:0(und): Video: h264 (High) (avc1 / 0x31637661), yuv420p(tv, bt709, progressive), 360x636 [  Metadata:  handler_name    : VideoHandler  vendor_id       : [0][0][0][0]  Stream #0:1(und): Audio: aac (LC) (mp4a / 0x6134706D), 44100 Hz, stereo, fltp, 128 kb/s (default)  Metadata:  handler_name    : SoundHandler  vendor_id       : [0][0][0][0]  Press [q] to stop, [?] for help  [mp4 @ 0x9dc813700] Starting second pass: moving the moov atom to the beginning of the file  [out#0/mp4 @ 0x9dd428300] video:4484KiB audio:923KiB subtitle:0KiB other streams:0KiB global headers  frame= 1772 fps=0.0 q=-1.0 Lsize=    5471KiB time=00:00:59.06 bitrate= 758.8kbits/s speed=5.33e+03x   ffmpeg version 8.0 Copyright (c) 2000-2025 the FFmpeg developers  built with Apple clang version 17.0.0 (clang-1700.0.13.3)  configuration: --prefix=/opt/homebrew/Cellar/ffmpeg/8.0_1 --enable-shared --enable-pthreads --enable  libavutil      60.  8.100 / 60.  8.100  libavcodec     62. 11.100 / 62. 11.100  libavformat    62.  3.100 / 62.  3.100  libavdevice    62.  1.100 / 62.  1.100  libavfilter    11.  4.100 / 11.  4.100  libswscale      9.  1.100 /  9.  1.100  libswresample   6.  1.100 /  6.  1.100  Input #0, mov,mp4,m4a,3gp,3g2,mj2, from '新的漫剧素材/雪烬梨香/7.mp4':  Metadata:  major_brand     : isom  minor_version   : 512  compatible_brands: isomiso2avc1mp41  comment         : vid:v02d0fg10004d6h669vog65u9pjo91fg  encoder         : Lavf58.76.100  Duration: 00:00:58.23, start: 0.000000, bitrate: 666 kb/s  Stream #0:0[0x1](und): Audio: aac (LC) (mp4a / 0x6134706D), 44100 Hz, stereo, fltp, 128 kb/s (defaul  Metadata:  handler_name    : SoundHandler  vendor_id       : [0][0][0][0]  Stream #0:1[0x2](und): Video: h264 (High) (avc1 / 0x31637661), yuv420p(tv, bt709, progressive), 360x  Metadata:  handler_name    : VideoHandler  vendor_id       : [0][0][0][0]  Stream mapping:  Stream #0:1 -> #0:0 (copy)  Stream #0:0 -> #0:1 (copy)  Output #0, mp4, to 'clips/雪烬梨香/temp/segment_2.mp4':  Metadata:  major_brand     : isom  minor_version   : 512  compatible_brands: isomiso2avc1mp41  comment         : vid:v02d0fg10004d6h669vog65u9pjo91fg  encoder         : Lavf62.3.100  Stream #0:0(und): Video: h264 (High) (avc1 / 0x31637661), yuv420p(tv, bt709, progressive), 360x636 [  Metadata:  handler_name    : VideoHandler  vendor_id       : [0][0][0][0]  Stream #0:1(und): Audio: aac (LC) (mp4a / 0x6134706D), 44100 Hz, stereo, fltp, 128 kb/s (default)  Metadata:  handler_name    : SoundHandler  vendor_id       : [0][0][0][0]  Press [q] to stop, [?] for help  [mp4 @ 0x7d6c3b700] Starting second pass: moving the moov atom to the beginning of the file  [out#0/mp4 @ 0x7d6c64300] video:3758KiB audio:907KiB subtitle:0KiB other streams:0KiB global headers  frame= 1742 fps=0.0 q=-1.0 Lsize=    4728KiB time=00:00:58.05 bitrate= 667.2kbits/s speed=5.66e+03x   ffmpeg version 8.0 Copyright (c) 2000-2025 the FFmpeg developers  built with Apple clang version 17.0.0 (clang-1700.0.13.3)  configuration: --prefix=/opt/homebrew/Cellar/ffmpeg/8.0_1 --enable-shared --enable-pthreads --enable  libavutil      60.  8.100 / 60.  8.100  libavcodec     62. 11.100 / 62. 11.100  libavformat    62.  3.100 / 62.  3.100  libavdevice    62.  1.100 / 62.  1.100  libavfilter    11.  4.100 / 11.  4.100  libswscale      9.  1.100 /  9.  1.100  libswresample   6.  1.100 /  6.  1.100  Input #0, mov,mp4,m4a,3gp,3g2,mj2, from '新的漫剧素材/雪烬梨香/9.mp4':  Metadata:  major_brand     : isom  minor_version   : 512  compatible_brands: isomiso2avc1mp41  comment         : vid:v02d0fg10004d6h66cfog65i427m6mb0  encoder         : Lavf58.76.100  Duration: 00:01:03.77, start: 0.000000, bitrate: 746 kb/s  Stream #0:0[0x1](und): Audio: aac (LC) (mp4a / 0x6134706D), 44100 Hz, stereo, fltp, 128 kb/s (defaul  Metadata:  handler_name    : SoundHandler  vendor_id       : [0][0][0][0]  Stream #0:1[0x2](und): Video: h264 (High) (avc1 / 0x31637661), yuv420p(tv, bt709, progressive), 360x  Metadata:  handler_name    : VideoHandler  vendor_id       : [0][0][0][0]  Stream mapping:  Stream #0:1 -> #0:0 (copy)  Stream #0:0 -> #0:1 (copy)  Output #0, mp4, to 'clips/雪烬梨香/temp/segment_3.mp4':  Metadata:  major_brand     : isom  minor_version   : 512  compatible_brands: isomiso2avc1mp41  comment         : vid:v02d0fg10004d6h66cfog65i427m6mb0  encoder         : Lavf62.3.100  Stream #0:0(und): Video: h264 (High) (avc1 / 0x31637661), yuv420p(tv, bt709, progressive), 360x636 [  Metadata:  handler_name    : VideoHandler  vendor_id       : [0][0][0][0]  Stream #0:1(und): Audio: aac (LC) (mp4a / 0x6134706D), 44100 Hz, stereo, fltp, 128 kb/s (default)  Metadata:  handler_name    : SoundHandler  vendor_id       : [0][0][0][0]  Press [q] to stop, [?] for help  [mp4 @ 0xc7d03f700] Starting second pass: moving the moov atom to the beginning of the file  [out#0/mp4 @ 0xc7d0089c0] video:4680KiB audio:986KiB subtitle:0KiB other streams:0KiB global headers  frame= 1892 fps=0.0 q=-1.0 Lsize=    5735KiB time=00:01:03.11 bitrate= 744.4kbits/s speed=4.97e+03x   ffmpeg version 8.0 Copyright (c) 2000-2025 the FFmpeg developers  built with Apple clang version 17.0.0 (clang-1700.0.13.3)  configuration: --prefix=/opt/homebrew/Cellar/ffmpeg/8.0_1 --enable-shared --enable-pthreads --enable  libavutil      60.  8.100 / 60.  8.100  libavcodec     62. 11.100 / 62. 11.100  libavformat    62.  3.100 / 62.  3.100  libavdevice    62.  1.100 / 62.  1.100  libavfilter    11.  4.100 / 11.  4.100  libswscale      9.  1.100 /  9.  1.100  libswresample   6.  1.100 /  6.  1.100  Input #0, mov,mp4,m4a,3gp,3g2,mj2, from '新的漫剧素材/雪烬梨香/10.mp4':  Metadata:  major_brand     : isom  minor_version   : 512  compatible_brands: isomiso2avc1mp41  comment         : vid:v02d0fg10004d6h66avog65i427m6il0  encoder         : Lavf58.76.100  Duration: 00:00:54.33, start: 0.000000, bitrate: 903 kb/s  Stream #0:0[0x1](und): Audio: aac (LC) (mp4a / 0x6134706D), 44100 Hz, stereo, fltp, 128 kb/s (defaul  Metadata:  handler_name    : SoundHandler  vendor_id       : [0][0][0][0]  Stream #0:1[0x2](und): Video: h264 (High) (avc1 / 0x31637661), yuv420p(tv, bt709, progressive), 360x  Metadata:  handler_name    : VideoHandler  vendor_id       : [0][0][0][0]  Stream mapping:  Stream #0:1 -> #0:0 (copy)  Stream #0:0 -> #0:1 (copy)  Output #0, mp4, to 'clips/雪烬梨香/temp/segment_4.mp4':  Metadata:  major_brand     : isom  minor_version   : 512  compatible_brands: isomiso2avc1mp41  comment         : vid:v02d0fg10004d6h66avog65i427m6il0  encoder         : Lavf62.3.100  Stream #0:0(und): Video: h264 (High) (avc1 / 0x31637661), yuv420p(tv, bt709, progressive), 360x636 [  Metadata:  handler_name    : VideoHandler  vendor_id       : [0][0][0][0]  Stream #0:1(und): Audio: aac (LC) (mp4a / 0x6134706D), 44100 Hz, stereo, fltp, 128 kb/s (default)  Metadata:  handler_name    : SoundHandler  vendor_id       : [0][0][0][0]  Press [q] to stop, [?] for help  [mp4 @ 0xcb7013700] Starting second pass: moving the moov atom to the beginning of the file  [out#0/mp4 @ 0xcb70089c0] video:5081KiB audio:850KiB subtitle:0KiB other streams:0KiB global headers  frame= 1630 fps=0.0 q=-1.0 Lsize=    5990KiB time=00:00:54.26 bitrate= 904.2kbits/s speed=5.03e+03x 进度: [14/14] 50.0%进度: [14/14] 100.0%  ✅ 输出: clips/雪烬梨香/雪烬梨香_第5集3分26秒_第10集3分51秒.mp4
  ❌ 渲染失败: name 'progress' is not defined

✅ 渲染完成: 14/14个剪辑


完成！输出文件:
  - clips/雪烬梨香/雪烬梨香_第1集0秒_第1集28秒.mp4
  - clips/雪烬梨香/雪烬梨香_第1集0秒_第1集1分16秒.mp4
  - clips/雪烬梨香/雪烬梨香_第1集0秒_第1集2分34秒.mp4
  - clips/雪烬梨香/雪烬梨香_第1集0秒_第1集6分43秒.mp4
  - clips/雪烬梨香/雪烬梨香_第1集40秒_第1集1分16秒.mp4
  - clips/雪烬梨香/雪烬梨香_第1集40秒_第1集2分34秒.mp4
  - clips/雪烬梨香/雪烬梨香_第1集40秒_第1集6分43秒.mp4
  - clips/雪烬梨香/雪烬梨香_第1集40秒_第4集3分11秒.mp4
  - clips/雪烬梨香/雪烬梨香_第5集3分26秒_第6集3分25秒.mp4
  - clips/雪烬梨香/雪烬梨香_第5集3分26秒_第7集3分48秒.mp4
  - clips/雪烬梨香/雪烬梨香_第5集3分26秒_第7集4分18秒.mp4
  - clips/雪烬梨香/雪烬梨香_第5集3分26秒_第9集3分35秒.mp4
  - clips/雪烬梨香/雪烬梨香_第5集3分26秒_第9集4分22秒.mp4
  - clips/雪烬梨香/雪烬梨香_第5集3分26秒_第10集3分51秒.mp4
